<?xml version="1.0" encoding="UTF-8"?>
<svg width="180px" height="193px" viewBox="0 0 180 193" version="1.1" xmlns="http://www.w3.org/2000/svg" xmlns:xlink="http://www.w3.org/1999/xlink">
    <!-- Generator: Sketch 61 (89581) - https://sketch.com -->
    <title>icon 1</title>
    <desc>Created with Sketch.</desc>
    <g id="Page-1" stroke="none" stroke-width="1" fill="none" fill-rule="evenodd">
        <g id="icon-1">
            <rect id="Rectangle" fill="#223E52" x="0.5" y="19.9628906" width="22" height="8" rx="4"></rect>
            <rect id="Rectangle-Copy-15" fill="#223E52" x="120.5" y="19.9628906" width="22" height="8" rx="4"></rect>
            <path d="M71.5,-4.61852778e-14 C79.0546875,-4.61852778e-14 84.2366536,3.32096354 87.0458984,9.96289063 L109.5,9.96289063 C111.709139,9.96289063 113.5,11.7537516 113.5,13.9628906 L113.5,34.9628906 C113.5,37.1720296 111.709139,38.9628906 109.5,38.9628906 L33.5,38.9628906 C31.290861,38.9628906 29.5,37.1720296 29.5,34.9628906 L29.5,13.9628906 C29.5,11.7537516 31.290861,9.96289063 33.5,9.96289063 L56.5488281,9.96289063 C58.9615885,3.32096354 63.9453125,-4.61852778e-14 71.5,-4.61852778e-14 Z M71.9287109,8.39746094 C66.4944661,8.39746094 63.3141276,11.5859375 62.3876953,17.9628906 L62.3876953,17.9628906 L40.5,17.9628906 C39.3954305,17.9628906 38.5,18.8583211 38.5,19.9628906 L38.5,19.9628906 L38.5,28.9628906 C38.5,30.0674601 39.3954305,30.9628906 40.5,30.9628906 L40.5,30.9628906 L103.5,30.9628906 C104.604569,30.9628906 105.5,30.0674601 105.5,28.9628906 L105.5,28.9628906 L105.5,19.9628906 C105.5,18.8583211 104.604569,17.9628906 103.5,17.9628906 L103.5,17.9628906 L81.3769531,17.9628906 C80.5123698,11.5859375 77.3629557,8.39746094 71.9287109,8.39746094 Z" id="Combined-Shape" fill="#EF2221"></path>
            <rect id="Rectangle" fill="#223E52" x="67.5" y="61.9628906" width="44" height="9" rx="4.5"></rect>
            <g id="Group-7" transform="translate(116.500000, 91.556641)" fill="#EF2221">
                <path d="M3.5,22.40625 L22.5,22.40625 C24.9852814,22.40625 27,24.4209686 27,26.90625 C27,29.3915314 24.9852814,31.40625 22.5,31.40625 L3.5,31.40625 C1.01471863,31.40625 -1,29.3915314 -1,26.90625 C-1,24.4209686 1.01471863,22.40625 3.5,22.40625 Z" id="Rectangle-Copy-21" transform="translate(13.000000, 26.906250) rotate(49.000000) translate(-13.000000, -26.906250) "></path>
                <path d="M12.4882812,15 L43.4882812,15 C45.9735626,15 47.9882812,17.0147186 47.9882812,19.5 C47.9882812,21.9852814 45.9735626,24 43.4882812,24 L12.4882812,24 C10.0029999,24 7.98828125,21.9852814 7.98828125,19.5 C7.98828125,17.0147186 10.0029999,15 12.4882812,15 Z" id="Rectangle-Copy-22" transform="translate(27.988281, 19.500000) rotate(-58.000000) translate(-27.988281, -19.500000) "></path>
            </g>
            <rect id="Rectangle-Copy-17" fill="#223E52" x="29.5" y="83.9628906" width="64" height="9" rx="4.5"></rect>
            <rect id="Rectangle-Copy-18" fill="#223E52" x="29.5" y="106.962891" width="64" height="9" rx="4.5"></rect>
            <rect id="Rectangle-Copy-19" fill="#223E52" x="29.5" y="128.962891" width="64" height="9" rx="4.5"></rect>
            <rect id="Rectangle-Copy-20" fill="#223E52" x="29.5" y="150.962891" width="84" height="9" rx="4.5"></rect>
            <rect id="Rectangle-Copy-13" fill="#223E52" x="0.5" y="184.962891" width="142" height="8" rx="4"></rect>
            <path d="M-78,102.462891 L87,102.462891 C89.209139,102.462891 91,104.253752 91,106.462891 C91,108.67203 89.209139,110.462891 87,110.462891 L-78,110.462891 C-80.209139,110.462891 -82,108.67203 -82,106.462891 C-82,104.253752 -80.209139,102.462891 -78,102.462891 Z" id="Rectangle-Copy-12" fill="#223E52" transform="translate(4.500000, 106.462891) rotate(90.000000) translate(-4.500000, -106.462891) "></path>
            <path d="M126,171.962891 L152,171.962891 C154.209139,171.962891 156,173.753752 156,175.962891 C156,178.17203 154.209139,179.962891 152,179.962891 L126,179.962891 C123.790861,179.962891 122,178.17203 122,175.962891 C122,173.753752 123.790861,171.962891 126,171.962891 Z" id="Rectangle-Copy-14" fill="#223E52" transform="translate(139.000000, 175.962891) rotate(90.000000) translate(-139.000000, -175.962891) "></path>
            <path d="M122,36.9628906 L156,36.9628906 C158.209139,36.9628906 160,38.7537516 160,40.9628906 C160,43.1720296 158.209139,44.9628906 156,44.9628906 L122,44.9628906 C119.790861,44.9628906 118,43.1720296 118,40.9628906 C118,38.7537516 119.790861,36.9628906 122,36.9628906 Z" id="Rectangle-Copy-16" fill="#223E52" transform="translate(139.000000, 40.962891) rotate(90.000000) translate(-139.000000, -40.962891) "></path>
            <path d="M137.5,68.9628906 C160.695959,68.9628906 179.5,87.7669311 179.5,110.962891 C179.5,134.15885 160.695959,152.962891 137.5,152.962891 C114.304041,152.962891 95.5,134.15885 95.5,110.962891 C95.5,87.7669311 114.304041,68.9628906 137.5,68.9628906 Z M137.5,77.9628906 C119.274603,77.9628906 104.5,92.7374939 104.5,110.962891 C104.5,129.188287 119.274603,143.962891 137.5,143.962891 C155.725397,143.962891 170.5,129.188287 170.5,110.962891 C170.5,92.7374939 155.725397,77.9628906 137.5,77.9628906 Z" id="Combined-Shape" fill="#EF2221"></path>
        </g>
    </g>
</svg>